# xmcd
#
# Track frame offsets:
#	150
#	11961
#	17899
#	24505
#	29426
#	33808
#	46070
#	52043
#	59771
#	65856
#	71808
#	77990
#	84374
#	93384
#	99970
#	109067
#	113694
#
# Disc length: 1622 seconds
#
# Revision: 1
# Processed by: cddbd v1.5.2PL0 Copyright (c) Steve Scherf et al.
# Submitted via: audiograbber 1.81.02
#
DISCID=e3065411
DTITLE=VIDEO GALLERY - H AGIA NYXTA
DYEAR=1900
DGENRE=
TTITLE0=AGIA NYXTA
TTITLE1=FOUM FOUM FOUM
TTITLE2=ELATO
TTITLE3=XRISTOUGENNA
TTITLE4=XIONONIFADES
TTITLE5=O MIKROS TYMPANISTHS
TTITLE6=OI POIMENES GIORTAZOUN
TTITLE7=TRIGONA KALANTA
TTITLE8=XRISTOYGENNA KSANA
TTITLE9=SAS EYXOMASTE KALA XRISOTYGENNA
TTITLE10=KXIONIA STO KAMPANARIOATHE SPITI STOLISTE
TTITLE11=XRISTOYGENNIATIKH NYXTA
TTITLE12=O MIKRH MOY BHTHLEEM
TTITLE13=MAKRIA SE ENA STABLO
TTITLE14=NTIN NTAN AKOU TIS KAMPANES
TTITLE15=KALHN EPSERAN ARXONTES
TTITLE16=XIONIA STO KAMPANARIO
EXTD=
EXTT0=
EXTT1=
EXTT2=
EXTT3=
EXTT4=
EXTT5=
EXTT6=
EXTT7=
EXTT8=
EXTT9=
EXTT10=
EXTT11=
EXTT12=
EXTT13=
EXTT14=
EXTT15=
EXTT16=
PLAYORDER=
